<?xml version="1.0" ?><svg enable-background="new 0 0 32 32" version="1.1" viewBox="0 0 32 32" xml:space="preserve" xmlns="http://www.w3.org/2000/svg" xmlns:xlink="http://www.w3.org/1999/xlink"><g id="Outline_copy_2"><g><path d="M17.998,27.581c0.349-0.254,1.153-0.369,1.559-0.559c2.84-1.33,4.455-4.323,3.796-7.428    c-0.732-3.45-4.012-4.689-6.871-6.018c-1.592-0.74-3.448-1.72-3.437-3.723c0.002-0.369,0.071-0.856,0.248-1.191    c0.397-0.749,3.06-1.687,3.871-1.724c1.231-0.056,2.609,0.609,3.674,1.206c0.193,0.108,0.801,0.047,0.893-0.199    c0.312-0.831,0.624-1.661,0.937-2.492c0.026-0.07-0.018-0.112-0.075-0.144c-0.67-0.372-1.348-0.68-2.084-0.9    c-0.258-0.077-2.599-0.289-2.704-0.419c-0.408-0.508,0-2.872,0-3.577c0-0.102-0.21-0.129-0.273-0.129c-0.774,0-1.549,0-2.324,0    c-0.172,0-0.713,0.028-0.713,0.296c0,0.935,0.068,1.894,0,2.825c-0.051,0.708,0.027,0.583-0.325,0.872    c-0.282,0.232-1.187,0.369-1.544,0.533c-2.615,1.203-4.273,3.919-3.682,6.826c0.617,3.032,3.609,4.348,6.159,5.458    c1.863,0.811,3.95,1.858,4.132,4.132c0.041,0.509-0.052,1.106-0.251,1.576c-0.59,1.394-1.256,1.17-2.916,1.506    c-2.406,0.487-3.708,0.274-5.77-0.986c-0.186-0.114-0.807-0.043-0.893,0.199c-0.3,0.843-0.599,1.687-0.899,2.53    c-0.026,0.074,0.018,0.107,0.075,0.144c0.825,0.526,1.685,0.924,2.628,1.197c0.451,0.131,2.851,0.334,3.022,0.554    c0.423,0.543,0,2.878,0,3.635c0,0.023,0.016,0.04,0.032,0.057c0.001,0.004,0.004,0.007,0.006,0.011    c0.006,0.005,0.013,0.01,0.02,0.014c0.015,0.014,0.04,0.025,0.079,0.032c0.085,0.023,0.199,0.027,0.319,0.014    c0.726,0,1.452,0,2.178,0c0.172,0,0.713-0.028,0.713-0.296c0-0.985-0.177-2.144,0-3.11C17.715,27.565,17.543,27.913,17.998,27.581    z M17.054,27.372c-0.135,0.028-0.46,0.091-0.46,0.28c0,1.21,0,2.42,0,3.63c-0.458,0-0.917,0-1.375,0c0-1.228,0-2.457,0-3.685    c0-0.104-0.21-0.126-0.273-0.129c-1.173-0.062-5.079-0.354-5.356-1.795c-0.073-0.379,0.271-1.093,0.538-1.653    c2.217,1.182,5.009,1.821,7.404,0.896c2.077-0.802,3.376-2.978,2.373-5.146c-1.381-2.987-5.705-3.246-8.027-5.206    c-4.003-3.379-1.651-9.068,3.144-10.058c0.135-0.028,0.46-0.091,0.46-0.28c0-1.178,0-2.357,0-3.535    c0.234-0.005,0.468-0.006,0.696,0.017c0.939,0.093,0.475-0.253,0.642,0.365c0.247,0.914,0,2.211,0,3.169    c0,0.105,0.21,0.125,0.273,0.129c0.832,0.054,4.254,0.3,4.515,1.385c0.074,0.31-0.319,1.122-0.602,1.714    c-2.033-0.972-4.562-1.445-6.674-0.582c-1.755,0.716-2.843,2.663-1.977,4.49c1.403,2.96,6.115,3.191,8.345,5.378    C24.518,20.502,21.928,26.351,17.054,27.372z"/></g></g></svg>