<?xml version="1.0" encoding="utf-8"?>
<!-- Generator: Adobe Illustrator 16.0.0, SVG Export Plug-In . SVG Version: 6.00 Build 0)  -->
<!DOCTYPE svg PUBLIC "-//W3C//DTD SVG 1.0//EN" "http://www.w3.org/TR/2001/REC-SVG-20010904/DTD/svg10.dtd">
<svg version="1.0" id="Layer_1" xmlns="http://www.w3.org/2000/svg" xmlns:xlink="http://www.w3.org/1999/xlink" x="0px" y="0px"
	 width="512px" height="512px" viewBox="0 0 512 512" enable-background="new 0 0 512 512" xml:space="preserve">
<g>
	<defs>
		<path id="SVGID_1_" d="M512,256c0,141.383-114.619,256-256,256S0,397.383,0,256S114.619,0,256,0S512,114.617,512,256z"/>
	</defs>
	<use xlink:href="#SVGID_1_"  overflow="visible" fill="#5D0C0E"/>
	<clipPath id="SVGID_2_">
		<use xlink:href="#SVGID_1_"  overflow="visible"/>
	</clipPath>
	<g clip-path="url(#SVGID_2_)">
		<g>
			<path fill="#4F0A0C" d="M457.622,408.336v-39.412h85.213v39.412H457.622z M607.434,408.336h-13.437v-11.445h-22.606v11.445
				h-21.587v-46.369H450.65v46.369h-21.584v-11.445h-22.605v11.445H393.02h-63.457v55.079v120.011v55.073h63.457h214.414h63.457
				v-55.073V463.419v-55.083H607.434z"/>
			<path fill="#4F0A0C" d="M456.407,407.121v-39.412h85.213v39.412H456.407z M606.219,407.121h-13.438v-11.446h-22.605v11.446
				h-21.587v-46.37h-99.153v46.37h-21.584v-11.446h-22.605v11.446h-13.441h-63.458V462.2v120.01v55.074h63.458h214.414h63.457
				V582.21V462.204v-55.083H606.219z"/>
			<path fill="#4F0A0C" d="M455.192,405.906v-39.412h85.213v39.412H455.192z M605.004,405.906h-13.437v-11.445h-22.606v11.445
				h-21.587v-46.369h-99.153v46.369h-21.584v-11.445h-22.605v11.445H390.59h-63.457v55.079v120.011v55.073h63.457h214.414h63.457
				v-55.073V460.989v-55.083H605.004z"/>
			<path fill="#4F0A0C" d="M453.977,404.691v-39.413h85.213v39.413H453.977z M603.789,404.691h-13.438v-11.445h-22.605v11.445
				h-21.587v-46.369h-99.153v46.369h-21.584v-11.445h-22.606v11.445h-13.44h-63.458v55.079v120.011v55.072h63.458h214.414h63.456
				v-55.072V459.774v-55.083H603.789z"/>
			<path fill="#4F0A0C" d="M452.762,403.476v-39.412h85.213v39.412H452.762z M602.573,403.476h-13.437V392.03h-22.605v11.445
				h-21.588v-46.369H445.79v46.369h-21.584V392.03h-22.605v11.445h-13.441h-63.457v55.079v120.011v55.073h63.457h214.414h63.457
				v-55.073V458.559v-55.083H602.573z"/>
			<path fill="#4F0A0C" d="M451.547,402.261v-39.412h85.213v39.412H451.547z M601.359,402.261h-13.438v-11.444h-22.606v11.444
				h-21.586v-46.369h-99.154v46.369h-21.584v-11.444h-22.605v11.444h-13.44h-63.458v55.08v120.01v55.074h63.458h214.414h63.457
				v-55.074V457.344v-55.083H601.359z"/>
			<path fill="#4F0A0C" d="M450.332,401.046v-39.412h85.213v39.412H450.332z M600.144,401.046h-13.437v-11.445h-22.606v11.445
				h-21.587v-46.369H443.36v46.369h-21.584v-11.445h-22.605v11.445h-13.441h-63.457v55.079v120.011v55.073h63.457h214.414h63.457
				v-55.073V456.129v-55.083H600.144z"/>
			<path fill="#4F0A0C" d="M449.116,399.83v-39.412h85.214v39.412H449.116z M598.928,399.83h-13.437v-11.444h-22.605v11.444h-21.587
				v-46.368h-99.153v46.368h-21.584v-11.444h-22.606v11.444h-13.44h-63.457v55.079V574.92v55.073h63.457h214.413h63.457V574.92
				V454.914V399.83H598.928z"/>
			<path fill="#4F0A0C" d="M447.901,398.616v-39.413h85.213v39.413H447.901z M597.713,398.616h-13.437V387.17H561.67v11.446h-21.587
				v-46.37H440.93v46.37h-21.584V387.17H396.74v11.446h-13.441h-63.457v55.078v120.011v55.073h63.457h214.414h63.457v-55.073
				V453.698v-55.082H597.713z"/>
			<path fill="#4F0A0C" d="M446.687,397.4v-39.412h85.213V397.4H446.687z M596.498,397.4h-13.437v-11.445h-22.606V397.4h-21.587
				v-46.369h-99.153V397.4h-21.584v-11.445h-22.605V397.4h-13.441h-63.457v55.079V572.49v55.073h63.457h214.414h63.457V572.49
				V452.483V397.4H596.498z"/>
			<path fill="#4F0A0C" d="M445.472,396.186v-39.412h85.213v39.412H445.472z M595.283,396.186h-13.437V384.74H559.24v11.445h-21.587
				v-46.369H438.5v46.369h-21.584V384.74h-22.605v11.445h-13.441h-63.457v55.079v120.011v55.073h63.457h214.414h63.457v-55.073
				V451.269v-55.083H595.283z"/>
			<path fill="#4F0A0C" d="M444.257,394.971v-39.413h85.213v39.413H444.257z M594.068,394.971h-13.437v-11.446h-22.606v11.446
				h-21.587v-46.369h-99.153v46.369h-21.584v-11.446h-22.605v11.446h-13.441h-63.458v55.078v120.012v55.072h63.458h214.414h63.457
				v-55.072V450.054v-55.083H594.068z"/>
			<path fill="#4F0A0C" d="M443.041,393.756v-39.413h85.214v39.413H443.041z M592.854,393.756h-13.438V382.31H556.81v11.446h-21.587
				v-46.37h-99.153v46.37h-21.584V382.31H391.88v11.446h-13.441h-63.457v55.078v120.011v55.073h63.457h214.415h63.457v-55.073
				V448.838v-55.082H592.854z"/>
			<path fill="#4F0A0C" d="M441.826,392.541v-39.413h85.213v39.413H441.826z M591.639,392.541h-13.437v-11.445h-22.606v11.445
				h-21.588v-46.37h-99.152v46.37h-21.584v-11.445h-22.606v11.445h-13.441h-63.456v55.078V567.63v55.073h63.456h214.415h63.457
				V567.63V447.624v-55.083H591.639z"/>
			<path fill="#4F0A0C" d="M440.611,391.325v-39.412h85.213v39.412H440.611z M590.423,391.325h-13.437V379.88H554.38v11.445h-21.587
				v-46.369H433.64v46.369h-21.584V379.88H389.45v11.445h-13.44h-63.458v55.079v120.011v55.073h63.458h214.413h63.458v-55.073
				V446.408v-55.083H590.423z"/>
			<path fill="#4F0A0C" d="M439.396,390.11v-39.413h85.213v39.413H439.396z M589.208,390.11h-13.437v-11.445h-22.606v11.445h-21.587
				v-46.369h-99.153v46.369H410.84v-11.445h-22.605v11.445h-13.44h-63.457v55.079V565.2v55.073h63.457h214.414h63.457V565.2V445.193
				V390.11H589.208z"/>
			<path fill="#4F0A0C" d="M438.181,388.896v-39.413h85.213v39.413H438.181z M587.992,388.896h-13.436v-11.446H551.95v11.446
				h-21.588v-46.37H431.21v46.37h-21.585v-11.446H387.02v11.446h-13.44h-63.458v55.079v120.01v55.073h63.458h214.413h63.457v-55.073
				V443.978v-55.082H587.992z"/>
			<path fill="#4F0A0C" d="M436.966,387.68v-39.413h85.213v39.413H436.966z M586.777,387.68h-13.436v-11.445h-22.607v11.445h-21.587
				v-46.37h-99.153v46.37H408.41v-11.445h-22.605v11.445h-13.441h-63.457v55.079V562.77v55.073h63.457h214.414h63.457V562.77
				V442.763V387.68H586.777z"/>
			<path fill="#4F0A0C" d="M435.751,386.465v-39.412h85.214v39.412H435.751z M585.563,386.465h-13.436V375.02H549.52v11.445h-21.587
				v-46.369h-99.153v46.369h-21.584V375.02H384.59v11.445h-13.441h-63.457v55.079v120.011v55.073h63.457h214.414h63.457v-55.073
				V441.548v-55.083H585.563z"/>
			<path fill="#4F0A0C" d="M434.536,385.25v-39.412h85.213v39.412H434.536z M584.348,385.25h-13.436v-11.445h-22.607v11.445h-21.587
				v-46.37h-99.153v46.37H405.98v-11.445h-22.605v11.445h-13.441h-63.457v55.079V560.34v55.073h63.457h214.414h63.457V560.34
				V440.332V385.25H584.348z"/>
			<path fill="#4F0A0C" d="M433.32,384.035v-39.413h85.214v39.413H433.32z M583.133,384.035h-13.437v-11.446H547.09v11.446h-21.587
				v-46.37H426.35v46.37h-21.585v-11.446h-22.605v11.446h-13.44h-63.458v55.078v120.011v55.073h63.458h214.414h63.457v-55.073
				V439.117v-55.082H583.133z"/>
			<path fill="#4F0A0C" d="M432.105,382.82v-39.413h85.214v39.413H432.105z M581.918,382.82h-13.437v-11.445h-22.606v11.445h-21.587
				v-46.37h-99.153v46.37H403.55v-11.445h-22.605v11.445h-13.44h-63.457v55.079v120.01v55.073h63.457h214.414h63.457v-55.073
				V437.902V382.82H581.918z"/>
			<path fill="#4F0A0C" d="M430.891,381.604v-39.413h85.214v39.413H430.891z M580.703,381.604h-13.437v-11.445H544.66v11.445
				h-21.588v-46.369H423.92v46.369h-21.585v-11.445h-22.605v11.445h-13.441h-63.457v55.079v120.011v55.073h63.457h214.415h63.456
				v-55.073V436.688v-55.083H580.703z"/>
			<path fill="#4F0A0C" d="M429.676,380.39v-39.413h85.213v39.413H429.676z M579.487,380.39h-13.436v-11.445h-22.607v11.445h-21.587
				v-46.37h-99.153v46.37H401.12v-11.445h-22.606v11.445h-13.44h-63.457v55.079v120.011v55.073h63.457h214.414h63.457v-55.073
				V435.473V380.39H579.487z"/>
			<path fill="#4F0A0C" d="M428.461,379.175v-39.413h85.213v39.413H428.461z M578.272,379.175h-13.437v-11.446h-22.606v11.446
				h-21.587v-46.37h-99.153v46.37h-21.584v-11.446h-22.606v11.446h-13.44H300.4v55.078v120.011v55.073h63.458h214.414h63.457
				v-55.073V434.257v-55.082H578.272z"/>
			<path fill="#4F0A0C" d="M427.245,377.959v-39.413h85.214v39.413H427.245z M577.057,377.959h-13.436v-11.445h-22.607v11.445
				h-21.586v-46.37h-99.154v46.37h-21.584v-11.445h-22.605v11.445h-13.441h-63.457v55.079v120.011v55.073h63.457h214.414h63.457
				v-55.073V433.042v-55.083H577.057z"/>
			<path fill="#4F0A0C" d="M426.03,376.744v-39.412h85.214v39.412H426.03z M575.842,376.744h-13.436v-11.445H539.8v11.445h-21.588
				v-46.369h-99.153v46.369h-21.584v-11.445h-22.605v11.445h-13.44h-63.458v55.079v120.011v55.073h63.458h214.413H639.3v-55.073
				V431.827v-55.083H575.842z"/>
			<path fill="#4F0A0C" d="M424.815,375.529v-39.413h85.213v39.413H424.815z M574.627,375.529h-13.436v-11.445h-22.607v11.445
				h-21.587v-46.37h-99.153v46.37H396.26v-11.445h-22.605v11.445h-13.441h-63.457v55.079v120.011v55.073h63.457h214.414h63.457
				v-55.073V430.612v-55.083H574.627z"/>
			<path fill="#4F0A0C" d="M423.6,374.314v-39.413h85.214v39.413H423.6z M573.412,374.314h-13.436v-11.446h-22.607v11.446h-21.587
				v-46.37h-99.153v46.37h-21.584v-11.446h-22.606v11.446h-13.44h-63.457v55.078v120.011v55.073h63.457h214.414h63.457v-55.073
				V429.396v-55.082H573.412z"/>
			<path fill="#4F0A0C" d="M422.385,373.1v-39.413h85.214V373.1H422.385z M572.197,373.1h-13.436v-11.445h-22.607V373.1h-21.587
				v-46.37h-99.153v46.37H393.83v-11.445h-22.606V373.1h-13.44h-63.457v55.078v120.011v55.073h63.457h214.414h63.457v-55.073
				V428.182V373.1H572.197z"/>
			<path fill="#4F0A0C" d="M421.17,371.885v-39.414h85.214v39.414H421.17z M570.982,371.885h-13.437v-11.446h-22.606v11.446h-21.587
				v-46.37h-99.153v46.37h-21.585v-11.446h-22.605v11.446h-13.44H293.11v55.078v120.011v55.073h63.458h214.414h63.457v-55.073
				V426.967v-55.082H570.982z"/>
			<path fill="#4F0A0C" d="M419.955,370.669v-39.413h85.213v39.413H419.955z M569.767,370.669h-13.436v-11.445h-22.606v11.445
				h-21.588v-46.37h-99.152v46.37h-21.585v-11.445h-22.606v11.445h-13.44h-63.457v55.079v120.011v55.073h63.457h214.414h63.458
				v-55.073V425.752v-55.083H569.767z"/>
			<path fill="#4F0A0C" d="M418.74,369.454v-39.413h85.213v39.413H418.74z M568.552,369.454h-13.436v-11.446h-22.607v11.446h-21.587
				v-46.37h-99.153v46.37h-21.585v-11.446h-22.604v11.446h-13.441H290.68v55.079v120.011v55.072h63.458h214.414h63.457v-55.072
				V424.537v-55.083H568.552z"/>
			<path fill="#4F0A0C" d="M417.524,368.238v-39.413h85.214v39.413H417.524z M567.337,368.238H553.9v-11.445h-22.606v11.445h-21.587
				v-46.37h-99.153v46.37h-21.585v-11.445h-22.605v11.445h-13.44h-63.458v55.079v120.011v55.073h63.458h214.414h63.457v-55.073
				V423.321v-55.083H567.337z"/>
			<path fill="#4F0A0C" d="M416.31,367.024v-39.413h85.214v39.413H416.31z M566.122,367.024h-13.437v-11.446h-22.606v11.446h-21.587
				v-46.37h-99.153v46.37h-21.585v-11.446h-22.605v11.446h-13.44H288.25v55.078v120.011v55.073h63.458h214.414h63.457v-55.073
				V422.106v-55.082H566.122z"/>
			<path fill="#4F0A0C" d="M415.095,365.809v-39.413h85.214v39.413H415.095z M564.906,365.809h-13.436v-11.445h-22.606v11.445
				h-21.587v-46.37h-99.154v46.37h-21.584v-11.445h-22.605v11.445h-13.441h-63.457v55.079v120.011v55.073h63.457h214.414h63.457
				v-55.073V420.892v-55.083H564.906z"/>
			<path fill="#4F0A0C" d="M413.879,364.594v-39.413h85.215v39.413H413.879z M563.691,364.594h-13.436v-11.445h-22.607v11.445
				h-21.587v-46.37h-99.153v46.37h-21.585v-11.445h-22.605v11.445h-13.44H285.82v55.078v120.012v55.072h63.457h214.414h63.457
				v-55.072V419.677v-55.083H563.691z"/>
			<path fill="#4F0A0C" d="M412.665,363.379v-39.413h85.213v39.413H412.665z M562.477,363.379h-13.436v-11.445h-22.607v11.445
				h-21.587v-46.37h-99.153v46.37h-21.584v-11.445h-22.606v11.445h-13.439h-63.459v55.079v120.011v55.072h63.459h214.413h63.457
				v-55.072V418.461v-55.082H562.477z"/>
			<path fill="#4F0A0C" d="M411.449,362.164V322.75h85.214v39.414H411.449z M561.262,362.164h-13.436v-11.446h-22.607v11.446
				h-21.587v-46.371h-99.153v46.371h-21.585v-11.446h-22.605v11.446h-13.44H283.39v55.078v120.011v55.073h63.458h214.414h63.457
				v-55.073V417.246v-55.082H561.262z"/>
			<path fill="#4F0A0C" d="M410.234,360.948v-39.413h85.213v39.413H410.234z M560.047,360.948H546.61v-11.445h-22.606v11.445
				h-21.588v-46.37h-99.152v46.37h-21.585v-11.445h-22.605v11.445h-13.44h-63.458v55.079v120.011v55.073h63.458h214.414h63.457
				v-55.073V416.031v-55.083H560.047z"/>
			<path fill="#4F0A0C" d="M409.019,359.733V320.32h85.214v39.413H409.019z M558.831,359.733h-13.436v-11.446h-22.607v11.446
				h-21.587v-46.37h-99.153v46.37h-21.584v-11.446h-22.605v11.446h-13.441h-63.458v55.078v120.012v55.072h63.458h214.414h63.458
				v-55.072V414.816v-55.083H558.831z"/>
			<path fill="#4F0A0C" d="M407.804,358.518v-39.413h85.214v39.413H407.804z M557.616,358.518h-13.436v-11.445h-22.607v11.445
				h-21.587v-46.37h-99.153v46.37h-21.585v-11.445h-22.605v11.445h-13.44h-63.458v55.079v120.011v55.073h63.458h214.414h63.457
				v-55.073V413.601v-55.083H557.616z"/>
			<path fill="#4F0A0C" d="M406.589,357.304V317.89h85.214v39.414H406.589z M556.401,357.304h-13.436v-11.446h-22.607v11.446
				h-21.587v-46.37h-99.153v46.37h-21.585v-11.446h-22.605v11.446h-13.44h-63.458v55.078v120.011v55.073h63.458h214.414h63.457
				v-55.073V412.386v-55.082H556.401z"/>
			<path fill="#4F0A0C" d="M405.374,356.089v-39.414h85.214v39.414H405.374z M555.187,356.089H541.75v-11.446h-22.606v11.446
				h-21.587v-46.371h-99.154v46.371h-21.584v-11.446h-22.605v11.446h-13.44h-63.458v55.078v120.011v55.073h63.458h214.414h63.457
				v-55.073V411.171v-55.082H555.187z"/>
			<path fill="#4F0A0C" d="M404.159,354.873V315.46h85.213v39.413H404.159z M553.972,354.873h-13.437v-11.445h-22.607v11.445
				h-21.587v-46.37h-99.153v46.37h-21.584v-11.445h-22.606v11.445h-13.44H276.1v55.079v120.011v55.072h63.457h214.415h63.456
				v-55.072V409.956v-55.083H553.972z"/>
			<path fill="#4F0A0C" d="M402.944,353.659v-39.414h85.214v39.414H402.944z M552.756,353.659H539.32v-11.446h-22.607v11.446
				h-21.586v-46.371h-99.154v46.371h-21.584v-11.446h-22.605v11.446h-13.441h-63.457v55.078v120.011v55.073h63.457h214.414h63.458
				v-55.073V408.741v-55.082H552.756z"/>
			<path fill="#4F0A0C" d="M401.729,352.443v-39.414h85.215v39.414H401.729z M551.541,352.443h-13.436v-11.446h-22.607v11.446
				h-21.587v-46.371h-99.153v46.371h-21.585v-11.446h-22.605v11.446h-13.44h-63.458v55.078v120.011v55.073h63.458h214.414h63.457
				v-55.073V407.526v-55.083H551.541z"/>
			<path fill="#4F0A0C" d="M400.514,351.229v-39.414h85.214v39.414H400.514z M550.326,351.229h-13.436v-11.446h-22.607v11.446
				h-21.587v-46.371h-99.153v46.371h-21.585v-11.446h-22.605v11.446h-13.44h-63.458v55.078v120.011v55.073h63.458h214.414h63.457
				v-55.073V406.311v-55.082H550.326z"/>
			<path fill="#4F0A0C" d="M399.299,350.014V310.6h85.214v39.414H399.299z M549.11,350.014h-13.436v-11.447h-22.606v11.447H491.48
				v-46.371h-99.152v46.371h-21.585v-11.447h-22.605v11.447h-13.44h-63.458v55.078v120.011v55.072h63.458H549.11h63.457v-55.072
				V405.096v-55.082H549.11z"/>
			<path fill="#4F0A0C" d="M398.083,348.798v-39.413h85.214v39.413H398.083z M547.896,348.798H534.46v-11.446h-22.607v11.446
				h-21.587v-46.371h-99.153v46.371h-21.585v-11.446h-22.605v11.446h-13.44h-63.458v55.078v120.011v55.073h63.458h214.414h63.457
				v-55.073V403.88v-55.082H547.896z"/>
			<path fill="#4F0A0C" d="M396.869,347.583v-39.414h85.213v39.414H396.869z M546.681,347.583h-13.435v-11.445h-22.608v11.445
				h-21.587v-46.37h-99.152v46.37h-21.585v-11.445h-22.606v11.445h-13.439h-63.459v55.079v120.01v55.073h63.459h214.413h63.458
				v-55.073V402.666v-55.083H546.681z"/>
			<path fill="#4F0A0C" d="M395.653,346.368v-39.414h85.214v39.414H395.653z M545.466,346.368H532.03v-11.446h-22.607v11.446
				h-21.587v-46.371h-99.153v46.371h-21.585v-11.446h-22.605v11.446h-13.44h-63.458v55.078v120.011v55.073h63.458h214.414h63.457
				v-55.073V401.45v-55.082H545.466z"/>
			<path fill="#4F0A0C" d="M394.438,345.152v-39.414h85.214v39.414H394.438z M544.25,345.152h-13.436v-11.445h-22.606v11.445H486.62
				v-46.371h-99.153v46.371h-21.584v-11.445h-22.606v11.445h-13.439h-63.458v55.078v120.012v55.072h63.458H544.25h63.458v-55.072
				V400.234v-55.082H544.25z"/>
			<path fill="#4F0A0C" d="M393.223,343.938v-39.414h85.215v39.414H393.223z M543.036,343.938H529.6v-11.445h-22.607v11.445h-21.586
				v-46.371h-99.154v46.371h-21.584v-11.445h-22.606v11.445h-13.44h-63.457v55.078v120.012V574.1h63.457h214.415h63.457v-55.072
				V399.02v-55.082H543.036z"/>
			<path fill="#4F0A0C" d="M392.008,342.723V303.31h85.215v39.413H392.008z M541.821,342.723h-13.437v-11.445h-22.606v11.445H484.19
				v-46.371h-99.153v46.371h-21.584v-11.445h-22.605v11.445h-13.441h-63.457v55.078v120.012v55.072h63.457h214.415h63.456v-55.072
				V397.806v-55.083H541.821z"/>
			<path fill="#4F0A0C" d="M390.793,341.508v-39.414h85.214v39.414H390.793z M540.605,341.508H527.17v-11.446h-22.607v11.446
				h-21.587v-46.371h-99.153v46.371h-21.585v-11.446h-22.605v11.446h-13.44h-63.458v55.078v120.011v55.073h63.458h214.414h63.457
				v-55.073V396.59v-55.082H540.605z"/>
			<path fill="#4F0A0C" d="M389.578,340.293v-39.414h85.214v39.414H389.578z M539.391,340.293h-13.437v-11.447h-22.606v11.447
				h-21.587v-46.372h-99.153v46.372h-21.586v-11.447h-22.605v11.447h-13.439h-63.458v55.078v120.01v55.073h63.458h214.414h63.457
				v-55.073V395.375v-55.082H539.391z"/>
			<path fill="#4F0A0C" d="M388.363,339.078v-39.414h85.213v39.414H388.363z M538.176,339.078H524.74v-11.447h-22.607v11.447
				h-21.588v-46.372h-99.152v46.372h-21.586v-11.447h-22.605v11.447h-13.439h-63.458v55.078v120.01v55.073h63.458h214.414h63.457
				v-55.073V394.16v-55.082H538.176z"/>
			<path fill="#4F0A0C" d="M387.148,337.863v-39.414h85.214v39.414H387.148z M536.961,337.863h-13.436v-11.446h-22.607v11.446
				H479.33v-46.372h-99.152v46.372h-21.586v-11.446h-22.605v11.446h-13.439h-63.459v55.078v120.01v55.073h63.459h214.414h63.457
				v-55.073V392.945v-55.082H536.961z"/>
			<path fill="#4F0A0C" d="M385.933,336.647v-39.414h85.214v39.414H385.933z M535.745,336.647H522.31v-11.446h-22.607v11.446
				h-21.587v-46.371h-99.153v46.371h-21.585v-11.446h-22.605v11.446h-13.439h-63.459v55.078v120.011v55.073h63.459h214.413h63.458
				v-55.073V391.729v-55.082H535.745z"/>
			<path fill="#4F0A0C" d="M384.717,335.432v-39.414h85.215v39.414H384.717z M534.529,335.432h-13.435v-11.445h-22.607v11.445H476.9
				v-46.371h-99.153v46.371h-21.585v-11.445h-22.606v11.445h-13.439h-63.458v55.079v120.011v55.072h63.458h214.413h63.458v-55.072
				V390.515v-55.083H534.529z"/>
			<path fill="#4F0A0C" d="M383.502,334.217v-39.414h85.215v39.414H383.502z M533.315,334.217H519.88v-11.445h-22.607v11.445
				h-21.587v-46.371h-99.154v46.371h-21.584v-11.445h-22.605v11.445h-13.44h-63.458v55.079v120.011v55.072h63.458h214.414h63.457
				v-55.072V389.299v-55.082H533.315z"/>
			<path fill="#4F0A0C" d="M382.287,333.002v-39.413h85.215v39.413H382.287z M532.101,333.002h-13.436v-11.445h-22.607v11.445
				h-21.587v-46.371h-99.154v46.371h-21.584v-11.445h-22.605v11.445h-13.44h-63.458v55.079v120.011v55.072h63.458h214.414h63.457
				v-55.072V388.084v-55.082H532.101z"/>
			<path fill="#4F0A0C" d="M381.072,331.787v-39.414h85.215v39.414H381.072z M530.885,331.787h-13.436v-11.446h-22.607v11.446
				h-21.587v-46.371h-99.153v46.371h-21.585v-11.446h-22.605v11.446h-13.44h-63.458v55.078v120.012v55.072h63.458h214.414h63.457
				v-55.072V386.869v-55.082H530.885z"/>
			<path fill="#4F0A0C" d="M379.857,330.572v-39.414h85.214v39.414H379.857z M529.67,330.572h-13.436v-11.446h-22.607v11.446
				h-21.588V284.2h-99.152v46.372h-21.585v-11.446h-22.606v11.446h-13.439h-63.458v55.078v120.011v55.072h63.458H529.67h63.457
				v-55.072V385.654v-55.082H529.67z"/>
			<path fill="#4F0A0C" d="M378.643,329.357v-39.415h85.214v39.415H378.643z M528.455,329.357H515.02V317.91h-22.607v11.447h-21.587
				v-46.372h-99.153v46.372h-21.585V317.91H327.48v11.447h-13.439h-63.458v55.078v120.011v55.072h63.458h214.414h63.457v-55.072
				V384.439v-55.082H528.455z"/>
			<path fill="#4F0A0C" d="M377.428,328.143v-39.414h85.214v39.414H377.428z M527.24,328.143h-13.436v-11.446h-22.607v11.446H469.61
				v-46.372h-99.153v46.372h-21.585v-11.446h-22.606v11.446h-13.439h-63.458v55.078v120.011v55.072h63.458H527.24h63.457v-55.072
				V383.225v-55.082H527.24z"/>
			<path fill="#4F0A0C" d="M376.212,326.927v-39.414h85.215v39.414H376.212z M526.025,326.927H512.59V315.48h-22.607v11.446h-21.588
				v-46.371h-99.152v46.371h-21.586V315.48h-22.605v11.446h-13.439h-63.459v55.079v120.01v55.073h63.459h214.414h63.457v-55.073
				V382.009v-55.082H526.025z"/>
			<path fill="#4F0A0C" d="M374.997,325.711v-39.414h85.214v39.414H374.997z M524.81,325.711h-13.436v-11.445h-22.607v11.445H467.18
				V279.34h-99.153v46.371h-21.585v-11.445h-22.605v11.445h-13.44h-63.458v55.079v120.011v55.072h63.458H524.81h63.457v-55.072
				V380.794v-55.083H524.81z"/>
			<path fill="#4F0A0C" d="M373.782,324.497v-39.415h85.214v39.415H373.782z M523.595,324.497h-13.436v-11.446h-22.607v11.446
				h-21.587v-46.372h-99.153v46.372h-21.585v-11.446h-22.605v11.446h-13.44h-63.458v55.077v120.012v55.072h63.458h214.414h63.457
				v-55.072V379.579v-55.082H523.595z"/>
			<path fill="#4F0A0C" d="M372.567,323.282v-39.415h85.214v39.415H372.567z M522.38,323.282h-13.436v-11.446h-22.607v11.446H464.75
				V276.91h-99.153v46.372h-21.585v-11.446h-22.605v11.446h-13.439h-63.459v55.078v120.011v55.072h63.459H522.38h63.457v-55.072
				V378.364v-55.082H522.38z"/>
			<path fill="#4F0A0C" d="M371.352,322.066v-39.414h85.215v39.414H371.352z M521.165,322.066h-13.437V310.62h-22.607v11.446
				h-21.586v-46.371h-99.154v46.371h-21.584V310.62H320.19v11.446h-13.439h-63.458v55.078v120.012v55.072h63.458h214.414h63.457
				v-55.072V377.148v-55.082H521.165z"/>
			<path fill="#4F0A0C" d="M370.137,320.852v-39.414h85.215v39.414H370.137z M519.949,320.852h-13.436v-11.446h-22.607v11.446
				h-21.587v-46.372h-99.153v46.372h-21.585v-11.446h-22.605v11.446h-13.44h-63.458v55.078V495.94v55.073h63.458h214.414h63.457
				V495.94V375.934v-55.082H519.949z"/>
			<path fill="#4F0A0C" d="M368.922,319.637v-39.415h85.214v39.415H368.922z M518.734,319.637h-13.436V308.19h-22.607v11.446
				h-21.587v-46.372h-99.153v46.372h-21.585V308.19H317.76v11.446H304.32h-63.458v55.078v120.011v55.073h63.458h214.414h63.457
				v-55.073V374.719v-55.082H518.734z"/>
			<path fill="#4F0A0C" d="M367.707,318.422v-39.414h85.214v39.414H367.707z M517.52,318.422h-13.436v-11.446h-22.607v11.446H459.89
				V272.05h-99.153v46.372h-21.585v-11.446h-22.606v11.446h-13.439h-63.458V373.5v120.011v55.072h63.458H517.52h63.457v-55.072
				V373.504v-55.082H517.52z"/>
			<path fill="#4F0A0C" d="M366.491,317.207v-39.415h85.215v39.415H366.491z M516.305,317.207h-13.436V305.76h-22.607v11.447
				h-21.588v-46.372h-99.152v46.372h-21.586V305.76H315.33v11.447h-13.439h-63.459v55.077v120.011v55.073h63.459h214.414h63.457
				v-55.073V372.288v-55.081H516.305z"/>
			<path fill="#4F0A0C" d="M365.276,315.991v-39.415h85.214v39.415H365.276z M515.089,315.991h-13.435v-11.446h-22.607v11.446
				h-21.588v-46.372h-99.153v46.372h-21.585v-11.446h-22.605v11.446h-13.44h-63.458v55.078V491.08v55.072h63.458h214.414h63.457
				V491.08V371.073v-55.082H515.089z"/>
			<path fill="#4F0A0C" d="M364.062,314.776v-39.415h85.214v39.415H364.062z M513.875,314.776h-13.436V303.33h-22.608v11.446
				h-21.587v-46.372h-99.152v46.372h-21.586V303.33H312.9v11.446h-13.44h-63.458v55.078v120.011v55.072h63.458h214.415h63.456
				v-55.072V369.858v-55.082H513.875z"/>
			<path fill="#4F0A0C" d="M362.847,313.562v-39.415h85.214v39.415H362.847z M512.66,313.562h-13.436v-11.446h-22.607v11.446
				h-21.588v-46.372h-99.152v46.372h-21.586v-11.446h-22.605v11.446h-13.44h-63.458v55.078V488.65v55.072h63.458H512.66h63.457
				V488.65V368.644v-55.082H512.66z"/>
			<path fill="#4F0A0C" d="M361.631,312.347v-39.415h85.215v39.415H361.631z M511.444,312.347h-13.436v-11.447h-22.607v11.447
				h-21.587v-46.372H354.66v46.372h-21.584v-11.447H310.47v11.447H297.03h-63.458v55.077v120.011v55.073h63.458h214.414h63.457
				v-55.073V367.429v-55.082H511.444z"/>
			<path fill="#4F0A0C" d="M360.416,311.131v-39.415h85.215v39.415H360.416z M510.229,311.131h-13.436v-11.446h-22.607v11.446
				h-21.587v-46.372h-99.153v46.372H331.86v-11.446h-22.605v11.446h-13.439h-63.459v55.078V486.22v55.073h63.459h214.413h63.458
				V486.22V366.213v-55.082H510.229z"/>
			<path fill="#4F0A0C" d="M359.201,309.916v-39.415h85.215v39.415H359.201z M509.014,309.916h-13.435V298.47h-22.608v11.446
				h-21.587v-46.372H352.23v46.372h-21.585V298.47H308.04v11.446h-13.439h-63.459v55.078v120.011v55.073h63.459h214.413h63.458
				v-55.073V364.998v-55.082H509.014z"/>
			<path fill="#4F0A0C" d="M357.986,308.701v-39.414h85.215v39.414H357.986z M507.8,308.701h-13.436v-11.446h-22.607v11.446H450.17
				v-46.372h-99.154v46.372h-21.585v-11.446h-22.606v11.446h-13.438h-63.459v55.078V483.79v55.073h63.459H507.8h63.456V483.79
				V363.783v-55.082H507.8z"/>
			<path fill="#4F0A0C" d="M356.771,307.486v-39.415h85.215v39.415H356.771z M506.584,307.486h-13.436v-11.447h-22.607v11.447
				h-21.587v-46.372h-99.153v46.372h-21.586v-11.447h-22.605v11.447H292.17h-63.458v55.078v120.01v55.073h63.458h214.414h63.457
				v-55.073V362.568v-55.082H506.584z"/>
			<path fill="#4F0A0C" d="M355.556,306.271v-39.415h85.214v39.415H355.556z M505.369,306.271h-13.436v-11.446h-22.607v11.446
				h-21.588v-46.372h-99.152v46.372H327v-11.446h-22.605v11.446h-13.439h-63.459v55.078v120.011v55.072h63.459h214.414h63.457
				v-55.072V361.353v-55.082H505.369z"/>
			<path fill="#4F0A0C" d="M354.341,305.056v-39.415h85.215v39.415H354.341z M504.154,305.056h-13.436v-11.446h-22.607v11.446
				h-21.588v-46.372h-99.152v46.372h-21.586v-11.446H303.18v11.446H289.74h-63.459v55.078v120.011v55.072h63.459h214.414h63.457
				v-55.072V360.138v-55.082H504.154z"/>
			<path fill="#4F0A0C" d="M353.126,303.841v-39.415h85.214v39.415H353.126z M502.939,303.841h-13.436v-11.446h-22.607v11.446
				h-21.588v-46.372h-99.152v46.372H324.57v-11.446h-22.605v11.446h-13.439h-63.459v55.078V478.93v55.072h63.459h214.414h63.457
				V478.93V358.923v-55.082H502.939z"/>
			<path fill="#4F0A0C" d="M351.911,302.626v-39.415h85.214v39.415H351.911z M501.724,302.626h-13.435V291.18h-22.608v11.446
				h-21.587v-46.372H344.94v46.372h-21.585V291.18h-22.606v11.446H287.31h-63.458v55.077v120.012v55.072h63.458h214.414h63.458
				v-55.072V357.707v-55.081H501.724z"/>
			<path fill="#4F0A0C" d="M350.695,301.41v-39.415h85.215v39.415H350.695z M500.509,301.41h-13.436v-11.446h-22.607v11.446h-21.588
				v-46.372h-99.153v46.372H322.14v-11.446h-22.605v11.446h-13.439h-63.459v55.078v120.011v55.073h63.459h214.414h63.457v-55.073
				V356.492V301.41H500.509z"/>
			<path fill="#4F0A0C" d="M349.48,300.195v-39.414h85.215v39.414H349.48z M499.294,300.195h-13.436v-11.446h-22.607v11.446h-21.587
				v-46.372H342.51v46.372h-21.585v-11.446h-22.605v11.446H284.88h-63.459v55.078v120.011v55.073h63.459h214.414h63.457v-55.073
				V355.277v-55.082H499.294z"/>
			<path fill="#4F0A0C" d="M348.266,298.98v-39.414h85.215v39.414H348.266z M498.079,298.98h-13.435v-11.446h-22.608v11.446h-21.588
				v-46.372h-99.153v46.372H319.71v-11.446h-22.605v11.446h-13.439h-63.459v55.078v120.011v55.073h63.459h214.414h63.457v-55.073
				V354.063V298.98H498.079z"/>
			<path fill="#4F0A0C" d="M347.051,297.766v-39.415h85.215v39.415H347.051z M496.864,297.766h-13.436v-11.447H460.82v11.447
				h-21.587v-46.372H340.08v46.372h-21.585v-11.447h-22.606v11.447H282.45h-63.459v55.078v120.011v55.072h63.459h214.414h63.456
				v-55.072V352.848v-55.082H496.864z"/>
			<path fill="#4F0A0C" d="M345.835,296.551v-39.416h85.215v39.416H345.835z M495.648,296.551h-13.436v-11.447h-22.607v11.447
				h-21.587v-46.373h-99.153v46.373h-21.586v-11.447h-22.605v11.447h-13.439h-63.459v55.077v120.011v55.073h63.459h214.414h63.457
				v-55.073V351.632v-55.081H495.648z"/>
			<path fill="#4F0A0C" d="M344.62,295.336V255.92h85.215v39.416H344.62z M494.434,295.336h-13.436v-11.447h-22.607v11.447h-21.588
				v-46.373H337.65v46.373h-21.586v-11.447h-22.605v11.447H280.02h-63.459v55.077v120.011v55.072h63.459h214.414h63.457v-55.072
				V350.417v-55.081H494.434z"/>
			<path fill="#4F0A0C" d="M343.406,294.121v-39.416h85.214v39.416H343.406z M493.219,294.121h-13.436v-11.447h-22.607v11.447
				h-21.588v-46.373h-99.152v46.373H314.85v-11.447h-22.605v11.447h-13.439h-63.459v55.077v120.011v55.072h63.459h214.414h63.457
				v-55.072V349.203v-55.082H493.219z"/>
			<path fill="#4F0A0C" d="M342.189,292.905V253.49h85.215v39.415H342.189z M492.004,292.905h-13.436v-11.446h-22.607v11.446
				h-21.588v-46.372h-99.152v46.372h-21.586v-11.446h-22.606v11.446H277.59h-63.459v55.078v120.011v55.072h63.459h214.414h63.457
				v-55.072V347.986v-55.081H492.004z"/>
			<path fill="#4F0A0C" d="M340.975,291.689v-39.415h85.215v39.415H340.975z M490.788,291.689h-13.435v-11.445h-22.608v11.445
				h-21.587v-46.372h-99.153v46.372h-21.586v-11.445h-22.605v11.445h-13.439h-63.459v55.078v120.011v55.073h63.459h214.414h63.457
				v-55.073V346.771v-55.082H490.788z"/>
			<path fill="#4F0A0C" d="M339.76,290.475V251.06h85.215v39.415H339.76z M489.573,290.475h-13.435v-11.446H453.53v11.446h-21.587
				v-46.372H332.79v46.372h-21.586v-11.446h-22.605v11.446h-13.439H211.7v55.078v120.011v55.073h63.459h214.414h63.457v-55.073
				V345.557v-55.082H489.573z"/>
			<path fill="#4F0A0C" d="M338.545,289.26v-39.415h85.215v39.415H338.545z M488.359,289.26h-13.436v-11.446h-22.608v11.446h-21.587
				v-46.372h-99.153v46.372H309.99v-11.446h-22.606v11.446h-13.439h-63.458v55.078v120.011v55.073h63.458h214.415h63.456v-55.073
				V344.342V289.26H488.359z"/>
			<path fill="#4F0A0C" d="M337.33,288.045V248.63h85.215v39.415H337.33z M487.144,288.045h-13.435v-11.447h-22.608v11.447h-21.588
				v-46.372h-99.153v46.372h-21.586v-11.447h-22.605v11.447h-13.439H209.27v55.078v120.011v55.073h63.458h214.415H550.6v-55.073
				V343.127v-55.082H487.144z"/>
			<path fill="#4F0A0C" d="M336.115,286.83v-39.416h85.214v39.416H336.115z M485.928,286.83h-13.435v-11.447h-22.608v11.447h-21.587
				v-46.373h-99.153v46.373h-21.586v-11.447h-22.605v11.447h-13.439h-63.459v55.077v120.011v55.073h63.459h214.414h63.457v-55.073
				V341.911V286.83H485.928z"/>
			<path fill="#4F0A0C" d="M334.9,285.615v-39.416h85.215v39.416H334.9z M484.713,285.615h-13.436v-11.447H448.67v11.447h-21.588
				v-46.373H327.93v46.373h-21.586v-11.447h-22.605v11.447h-13.439H206.84v55.077v120.011v55.073h63.458h214.414h63.457v-55.073
				V340.696v-55.081H484.713z"/>
			<path fill="#4F0A0C" d="M333.685,284.4v-39.416h85.215V284.4H333.685z M483.498,284.4h-13.435v-11.447h-22.608V284.4h-21.588
				v-46.373h-99.152V284.4h-21.586v-11.447h-22.605V284.4h-13.439h-63.459v55.077v120.011v55.073h63.459h214.414h63.457v-55.073
				V339.481V284.4H483.498z"/>
			<path fill="#4F0A0C" d="M332.47,283.185V243.77h85.215v39.415H332.47z M482.283,283.185h-13.436v-11.446H446.24v11.446h-21.588
				v-46.373H325.5v46.373h-21.586v-11.446h-22.605v11.446h-13.439H204.41v55.078v120.011v55.072h63.459h214.414h63.457v-55.072
				V338.267v-55.082H482.283z"/>
			<path fill="#4F0A0C" d="M331.254,281.97v-39.416h85.216v39.416H331.254z M481.068,281.97h-13.436v-11.447h-22.607v11.447h-21.588
				v-46.373h-99.153v46.373h-21.585v-11.447h-22.606v11.447h-13.439h-63.458v55.078v120.011v55.072h63.458h214.415h63.457v-55.072
				V337.052V281.97H481.068z"/>
			<path fill="#4F0A0C" d="M330.039,280.755v-39.416h85.215v39.416H330.039z M479.853,280.755h-13.435v-11.447h-22.607v11.447
				h-21.588v-46.373h-99.153v46.373h-21.586v-11.447h-22.605v11.447h-13.438h-63.46v55.077v120.011v55.073h63.46h214.413h63.458
				v-55.073V335.836v-55.081H479.853z"/>
			<path fill="#4F0A0C" d="M328.824,279.54v-39.416h85.215v39.416H328.824z M478.638,279.54h-13.435v-11.447h-22.608v11.447h-21.587
				v-46.374h-99.153v46.374h-21.586v-11.447h-22.605v11.447h-13.439h-63.459v55.077v120.011v55.073h63.459h214.414h63.457v-55.073
				V334.621V279.54H478.638z"/>
			<path fill="#4F0A0C" d="M327.609,278.324v-39.415h85.215v39.415H327.609z M477.423,278.324h-13.435v-11.446H441.38v11.446
				h-21.587v-46.373H320.64v46.373h-21.586v-11.446h-22.606v11.446h-13.438H199.55v55.078v120.01v55.074h63.459h214.414h63.457
				v-55.074V333.406v-55.082H477.423z"/>
			<path fill="#4F0A0C" d="M326.395,277.109v-39.415h85.215v39.415H326.395z M476.208,277.109h-13.436v-11.446h-22.607v11.446
				h-21.588v-46.373h-99.153v46.373h-21.585v-11.446h-22.606v11.446h-13.439h-63.458v55.078v120.01v55.073h63.458h214.415h63.457
				v-55.073V332.191v-55.082H476.208z"/>
			<path fill="#4F0A0C" d="M325.179,275.895v-39.416h85.215v39.416H325.179z M474.992,275.895h-13.435v-11.447h-22.608v11.447
				h-21.587v-46.373h-99.153v46.373h-21.586v-11.447h-22.605v11.447h-13.439H197.12v55.077v120.011v55.073h63.458h214.414h63.458
				v-55.073V330.976v-55.081H474.992z"/>
			<path fill="#4F0A0C" d="M323.964,274.68v-39.416h85.215v39.416H323.964z M473.777,274.68h-13.435v-11.447h-22.608v11.447h-21.587
				v-46.374h-99.153v46.374h-21.586v-11.447h-22.605v11.447h-13.439h-63.459v55.077v120.011v55.073h63.459h214.414h63.457v-55.073
				V329.761V274.68H473.777z"/>
			<path fill="#4F0A0C" d="M322.749,273.465v-39.417h85.215v39.417H322.749z M472.563,273.465h-13.435v-11.447H436.52v11.447
				h-21.588v-46.374h-99.152v46.374h-21.586v-11.447h-22.605v11.447h-13.439h-63.459v55.077v120.011v55.072h63.459h214.414h63.457
				v-55.072V328.546v-55.081H472.563z"/>
			<path fill="#4F0A0C" d="M321.533,272.25v-39.417h85.216v39.417H321.533z M471.348,272.25h-13.436v-11.447h-22.607v11.447h-21.588
				v-46.374h-99.153v46.374h-21.585v-11.447h-22.606v11.447h-13.438h-63.459v55.076v120.012v55.072h63.459h214.414h63.457v-55.072
				V327.331V272.25H471.348z"/>
			<path fill="#4F0A0C" d="M320.318,271.034v-39.416h85.215v39.416H320.318z M470.133,271.034h-13.436v-11.447H434.09v11.447
				h-21.588v-46.373h-99.153v46.373h-21.586v-11.447h-22.605v11.447h-13.438h-63.46v55.077v120.011v55.073h63.46h214.414h63.456
				v-55.073V326.115v-55.081H470.133z"/>
			<path fill="#4F0A0C" d="M319.104,269.819v-39.416h85.215v39.416H319.104z M468.918,269.819h-13.436v-11.447h-22.608v11.447
				h-21.587v-46.374h-99.153v46.374h-21.586v-11.447h-22.605v11.447h-13.439h-63.459v55.077v120.011v55.073h63.459h214.415h63.456
				v-55.073V324.9v-55.081H468.918z"/>
			<path fill="#4F0A0C" d="M317.889,268.604v-39.415h85.215v39.415H317.889z M467.702,268.604h-13.435v-11.446h-22.608v11.446
				h-21.587V222.23h-99.153v46.373h-21.586v-11.446h-22.606v11.446h-13.438h-63.459v55.078v120.011v55.073h63.459h214.414h63.457
				v-55.073V323.686v-55.082H467.702z"/>
			<path fill="#4F0A0C" d="M316.674,267.389v-39.416h85.215v39.416H316.674z M466.487,267.389h-13.435v-11.446h-22.608v11.446
				h-21.587v-46.373h-99.153v46.373h-21.587v-11.446h-22.605v11.446h-13.438h-63.459v55.078v120.011v55.072h63.459h214.414h63.457
				v-55.072V322.471v-55.082H466.487z"/>
			<path fill="#4F0A0C" d="M315.459,266.174v-39.416h85.215v39.416H315.459z M465.272,266.174h-13.435v-11.447h-22.608v11.447
				h-21.588v-46.373h-99.153v46.373h-21.586v-11.447h-22.605v11.447h-13.438h-63.459v55.078v120.01v55.073h63.459h214.414h63.456
				v-55.073V321.255v-55.081H465.272z"/>
			<path fill="#4F0A0C" d="M314.243,264.959v-39.416h85.216v39.416H314.243z M464.057,264.959h-13.435v-11.447h-22.607v11.447
				h-21.588v-46.374h-99.153v46.374h-21.586v-11.447h-22.605v11.447h-13.439h-63.459v55.077v120.011v55.073h63.459h214.414h63.457
				v-55.073V320.04v-55.081H464.057z"/>
			<path fill="#4F0A0C" d="M313.028,263.744v-39.417h85.215v39.417H313.028z M462.842,263.744h-13.435v-11.447h-22.608v11.447
				h-21.588V217.37h-99.152v46.374h-21.586v-11.447h-22.605v11.447h-13.439h-63.459v55.077v120.011v55.072h63.459h214.414h63.457
				v-55.072V318.825v-55.081H462.842z"/>
			<path fill="#4F0A0C" d="M311.813,262.529v-39.417h85.215v39.417H311.813z M461.627,262.529h-13.435v-11.448h-22.608v11.448
				h-21.588v-46.374h-99.152v46.374h-21.586v-11.448h-22.606v11.448h-13.438h-63.459v55.077v120.011v55.072h63.459h214.414h63.457
				v-55.072V317.609v-55.08H461.627z"/>
			<path fill="#4F0A0C" d="M310.598,261.313v-39.416h85.216v39.416H310.598z M460.412,261.313h-13.435v-11.447h-22.608v11.447
				h-21.588V214.94h-99.153v46.373h-21.585v-11.447h-22.606v11.447h-13.439h-63.459v55.077v120.011v55.073h63.459h214.415h63.457
				v-55.073V316.395v-55.081H460.412z"/>
			<path fill="#4F0A0C" d="M309.383,260.099v-39.416h85.216v39.416H309.383z M459.197,260.099h-13.436v-11.447h-22.607v11.447
				h-21.588v-46.374h-99.153v46.374h-21.585v-11.447h-22.606v11.447h-13.438h-63.46v55.077v120.011v55.073h63.46h214.414h63.457
				v-55.073V315.18v-55.081H459.197z"/>
			<path fill="#4F0A0C" d="M308.168,258.883v-39.415h85.215v39.415H308.168z M457.981,258.883h-13.435v-11.446h-22.608v11.446
				h-21.587V212.51h-99.153v46.373h-21.586v-11.446h-22.606v11.446h-13.438h-63.459v55.078v120.011v55.073h63.459h214.414h63.458
				v-55.073V313.965v-55.082H457.981z"/>
			<path fill="#4F0A0C" d="M306.953,257.668v-39.416h85.215v39.416H306.953z M456.767,257.668h-13.435v-11.446h-22.608v11.446
				h-21.587v-46.373h-99.153v46.373h-21.586v-11.446h-22.606v11.446h-13.439h-63.459v55.078v120.011v55.072h63.459h214.414h63.457
				v-55.072V312.75v-55.082H456.767z"/>
			<path fill="#4F0A0C" d="M305.738,256.454v-39.417h85.215v39.417H305.738z M455.552,256.454h-13.435v-11.447h-22.608v11.447
				h-21.588V210.08h-99.153v46.374h-21.586v-11.447h-22.605v11.447h-13.438h-63.459v55.077v120.011v55.073h63.459h214.414h63.457
				v-55.073V311.535v-55.082H455.552z"/>
			<path fill="#4F0A0C" d="M304.522,255.238v-39.417h85.216v39.417H304.522z M454.337,255.238h-13.435v-11.447h-22.608v11.447
				h-21.588v-46.374h-99.153v46.374h-21.586v-11.447h-22.605v11.447h-13.438h-63.46v55.077v120.011v55.073h63.46h214.414h63.457
				v-55.073V310.319v-55.081H454.337z"/>
			<path fill="#4F0A0C" d="M303.308,254.023v-39.417h85.216v39.417H303.308z M453.122,254.023h-13.435v-11.447h-22.609v11.447
				h-21.587v-46.374h-99.153v46.374h-21.586v-11.447h-22.605v11.447h-13.439h-63.459v55.077v120.011v55.072h63.459h214.415h63.457
				v-55.072V309.104v-55.081H453.122z"/>
			<path fill="#4F0A0C" d="M302.093,252.808v-39.417h85.216v39.417H302.093z M451.906,252.808h-13.435v-11.447h-22.608v11.447
				h-21.587v-46.374h-99.153v46.374h-21.586v-11.447h-22.606v11.447h-13.438h-63.46v55.077v120.012v55.072h63.46h214.414h63.457
				v-55.072V307.889v-55.081H451.906z"/>
			<path fill="#4F0A0C" d="M300.877,251.593v-39.417h85.216v39.417H300.877z M450.691,251.593h-13.435v-11.447h-22.608v11.447
				h-21.588v-46.374h-99.152v46.374h-21.586v-11.447h-22.606v11.447h-13.438h-63.459v55.077v120.011v55.073h63.459h214.414h63.457
				v-55.073V306.674v-55.081H450.691z"/>
			<path fill="#4F0A0C" d="M299.662,250.378v-39.416h85.215v39.416H299.662z M449.477,250.378h-13.436v-11.447h-22.607v11.447
				h-21.588v-46.374h-99.153v46.374h-21.586v-11.447h-22.605v11.447h-13.438h-63.46v55.077v120.011v55.073h63.46h214.414h63.457
				v-55.073V305.459v-55.081H449.477z"/>
			<path fill="#4F0A0C" d="M298.447,249.163v-39.417h85.215v39.417H298.447z M448.262,249.163h-13.435v-11.447h-22.609v11.447
				h-21.587v-46.374h-99.153v46.374h-21.586v-11.447h-22.606v11.447h-13.438h-63.459v55.077v120.011v55.073h63.459h214.415h63.456
				v-55.073V304.244v-55.081H448.262z"/>
			<path fill="#4F0A0C" d="M297.232,247.948v-39.417h85.215v39.417H297.232z M447.046,247.948h-13.435v-11.447h-22.608v11.447
				h-21.587v-46.374h-99.153v46.374h-21.586v-11.447h-22.606v11.447h-13.438h-63.459v55.077v120.011v55.072h63.459h214.414h63.457
				v-55.072V303.029v-55.081H447.046z"/>
			<path fill="#4F0A0C" d="M296.017,246.733v-39.417h85.216v39.417H296.017z M445.831,246.733h-13.435v-11.447h-22.608v11.447
				h-21.587v-46.375h-99.154v46.375h-21.586v-11.447h-22.605v11.447h-13.438h-63.459v55.077v120.01v55.073h63.459h214.414h63.457
				V421.82V301.814v-55.081H445.831z"/>
			<path fill="#4F0A0C" d="M294.802,245.518v-39.417h85.216v39.417H294.802z M444.616,245.518h-13.435v-11.447h-22.608v11.447
				h-21.587v-46.374h-99.154v46.374h-21.586v-11.447h-22.605v11.447h-13.438h-63.46v55.077v120.011v55.073h63.46h214.414h63.457
				v-55.073V300.6v-55.082H444.616z"/>
			<path fill="#4F0A0C" d="M293.587,244.303v-39.417h85.216v39.417H293.587z M443.401,244.303h-13.435v-11.447h-22.608v11.447
				h-21.588v-46.374h-99.153v46.374h-21.586v-11.447h-22.605v11.447h-13.438h-63.46v55.077v120.011v55.072h63.46h214.414h63.456
				v-55.072V299.384v-55.081H443.401z"/>
			<path fill="#4F0A0C" d="M292.371,243.088v-39.417h85.217v39.417H292.371z M442.186,243.088h-13.434v-11.447h-22.609v11.447
				h-21.588v-46.374h-99.152v46.374h-21.586v-11.447H241.21v11.447h-13.438h-63.46v55.077v120.011v55.072h63.46h214.413h63.457
				v-55.072V298.169v-55.081H442.186z"/>
			<path fill="#4F0A0C" d="M291.156,241.873v-39.417h85.216v39.417H291.156z M440.971,241.873h-13.435v-11.448h-22.608v11.448
				H383.34v-46.375h-99.152v46.375h-21.586v-11.448h-22.606v11.448h-13.438h-63.459v55.077v120.011v55.072h63.459h214.414h63.457
				v-55.072V296.953v-55.08H440.971z"/>
			<path fill="#4F0A0C" d="M289.941,240.657v-39.416h85.216v39.416H289.941z M439.756,240.657h-13.435V229.21h-22.608v11.447
				h-21.588v-46.374h-99.152v46.374h-21.587V229.21H238.78v11.447h-13.438h-63.459v55.077v120.012v55.072h63.459h214.414h63.457
				v-55.072V295.738v-55.081H439.756z"/>
			<path fill="#4F0A0C" d="M288.727,239.442v-39.417h85.216v39.417H288.727z M438.541,239.442h-13.435v-11.447h-22.608v11.447
				H380.91v-46.374h-99.153v46.374h-21.586v-11.447h-22.606v11.447h-13.438h-63.46v55.077V414.53v55.073h63.46h214.414h63.457
				V414.53V294.523v-55.081H438.541z"/>
			<path fill="#4F0A0C" d="M287.512,238.228v-39.417h85.215v39.417H287.512z M437.326,238.228h-13.436V226.78h-22.607v11.447
				h-21.588v-46.374h-99.153v46.374h-21.587V226.78H236.35v11.447h-13.438h-63.459v55.077v120.011v55.072h63.459h214.415h63.457
				v-55.072V293.309v-55.081H437.326z"/>
			<path fill="#4F0A0C" d="M286.297,237.013v-39.417h85.215v39.417H286.297z M436.111,237.013h-13.436v-11.447h-22.607v11.447
				H378.48v-46.375h-99.153v46.375H257.74v-11.447h-22.605v11.447h-13.438h-63.46v55.077V412.1v55.073h63.46h214.415h63.457V412.1
				V292.094v-55.081H436.111z"/>
			<path fill="#4F0A0C" d="M285.081,235.797V196.38h85.216v39.417H285.081z M434.896,235.797h-13.435V224.35h-22.608v11.447h-21.588
				v-46.374h-99.153v46.374h-21.585V224.35H233.92v11.447h-13.438h-63.46v55.077v120.011v55.073h63.46h214.414h63.457v-55.073
				V290.879v-55.082H434.896z"/>
			<path fill="#4F0A0C" d="M283.866,234.582v-39.417h85.216v39.417H283.866z M433.681,234.582h-13.435v-11.447h-22.608v11.447
				H376.05v-46.374h-99.153v46.374h-21.586v-11.447h-22.605v11.447h-13.438h-63.46v55.077V409.67v55.072h63.46h214.414h63.457
				V409.67V289.663v-55.081H433.681z"/>
			<path fill="#4F0A0C" d="M282.651,233.367V193.95h85.216v39.417H282.651z M432.465,233.367h-13.434V221.92h-22.609v11.447h-21.587
				v-46.374h-99.153v46.374h-21.586V221.92h-22.606v11.447h-13.438h-63.459v55.077v120.011v55.072h63.459h214.414h63.458v-55.072
				V288.448v-55.081H432.465z"/>
			<path fill="#4F0A0C" d="M281.436,232.152v-39.417h85.217v39.417H281.436z M431.25,232.152h-13.434v-11.448h-22.609v11.448H373.62
				v-46.375h-99.153v46.375H252.88v-11.448h-22.606v11.448h-13.438h-63.459v55.076V407.24v55.072h63.459H431.25h63.458V407.24
				V287.233v-55.081H431.25z"/>
			<path fill="#4F0A0C" d="M280.221,230.937V191.52h85.217v39.417H280.221z M430.035,230.937h-13.434v-11.447h-22.609v11.447
				h-21.588v-46.374h-99.152v46.374h-21.586v-11.447H229.06v11.447h-13.438h-63.459v55.077v120.012v55.072h63.459h214.414h63.457
				v-55.072V286.018v-55.081H430.035z"/>
			<path fill="#4F0A0C" d="M279.006,229.722v-39.417h85.216v39.417H279.006z M428.82,229.722h-13.435v-11.447h-22.608v11.447
				h-21.588v-46.374h-99.152v46.374H250.45v-11.447h-22.606v11.447h-13.438h-63.46v55.077V404.81v55.073h63.46H428.82h63.457V404.81
				V284.803v-55.081H428.82z"/>
			<path fill="#4F0A0C" d="M277.791,228.507V189.09h85.216v39.417H277.791z M427.605,228.507h-13.435V217.06h-22.608v11.447h-21.588
				v-46.374h-99.153v46.374h-21.586V217.06h-22.606v11.447h-13.438h-63.46v55.077v120.011v55.072h63.46h214.414h63.457v-55.072
				V283.588v-55.081H427.605z"/>
			<path fill="#4F0A0C" d="M276.576,227.292v-39.417h85.216v39.417H276.576z M426.391,227.292h-13.435v-11.447h-22.608v11.447
				H368.76v-46.375h-99.153v46.375h-21.586v-11.447h-22.606v11.447h-13.438h-63.46v55.077v120.01v55.073h63.46h214.414h63.456
				v-55.073V282.373v-55.081H426.391z"/>
			<path fill="#4F0A0C" d="M275.361,226.077v-39.418h85.215v39.418H275.361z M425.175,226.077h-13.434v-11.448h-22.608v11.448
				h-21.588v-46.375h-99.153v46.375h-21.586v-11.448h-22.606v11.448h-13.438h-63.46v55.077v120.01v55.073h63.46h214.414h63.457
				v-55.073V281.158v-55.081H425.175z"/>
			<path fill="#4F0A0C" d="M274.146,224.862v-39.417h85.216v39.417H274.146z M423.96,224.862h-13.435v-11.448h-22.608v11.448H366.33
				v-46.375h-99.154v46.375H245.59v-11.448h-22.605v11.448h-13.438h-63.46v55.077v120.011v55.072h63.46H423.96h63.457v-55.072
				V279.942v-55.081H423.96z"/>
			<path fill="#4F0A0C" d="M272.931,223.647v-39.417h85.216v39.417H272.931z M422.745,223.647h-13.435v-11.448h-22.608v11.448
				h-21.588v-46.375h-99.153v46.375h-21.586v-11.448h-22.606v11.448h-13.438h-63.46v55.077v120.011v55.072h63.46h214.414h63.457
				v-55.072V278.728v-55.081H422.745z"/>
			<path fill="#4F0A0C" d="M271.716,222.432v-39.417h85.216v39.417H271.716z M421.53,222.432h-13.435v-11.448h-22.609v11.448
				h-21.587v-46.375h-99.153v46.375H243.16v-11.448h-22.606v11.448h-13.438h-63.459v55.077V397.52v55.072h63.459H421.53h63.456
				V397.52V277.513v-55.081H421.53z"/>
			<path fill="#4F0A0C" d="M270.5,221.217v-39.417h85.216v39.417H270.5z M420.314,221.217h-13.434v-11.448h-22.609v11.448h-21.588
				v-46.375h-99.152v46.375h-21.587v-11.448h-22.605v11.448h-13.438h-63.46v55.076v120.012v55.072h63.46h214.414h63.457v-55.072
				V276.297v-55.08H420.314z"/>
			<path fill="#4F0A0C" d="M269.285,220.001v-39.417h85.216v39.417H269.285z M419.1,220.001h-13.435v-11.448h-22.608v11.448h-21.588
				v-46.375h-99.152v46.375h-21.587v-11.448h-22.605v11.448h-13.438h-63.46v55.077v120.011v55.072h63.46H419.1h63.457v-55.072
				V275.082v-55.081H419.1z"/>
			<path fill="#4F0A0C" d="M268.07,218.787v-39.417h85.216v39.417H268.07z M417.885,218.787h-13.434v-11.448h-22.609v11.448h-21.588
				v-46.375h-99.152v46.375h-21.587v-11.448h-22.606v11.448h-13.438h-63.46v55.077v120.011v55.072h63.46h214.414h63.457v-55.072
				V273.867v-55.081H417.885z"/>
			<path fill="#4F0A0C" d="M266.855,217.571v-39.417h85.216v39.417H266.855z M416.67,217.571h-13.435v-11.447h-22.608v11.447
				h-21.588v-46.375h-99.152v46.375H238.3v-11.447h-22.606v11.447h-13.438h-63.46v55.077v120.011v55.072h63.46H416.67h63.457
				v-55.072V272.652v-55.081H416.67z"/>
			<path fill="#4F0A0C" d="M265.64,216.356v-39.418h85.216v39.418H265.64z M415.454,216.356h-13.434v-11.448h-22.608v11.448h-21.588
				v-46.375h-99.153v46.375h-21.587v-11.448h-22.605v11.448h-13.438h-63.46v55.076v120.012v55.072h63.46h214.414h63.458v-55.072
				V271.437v-55.08H415.454z"/>
			<path fill="#4F0A0C" d="M264.425,215.141v-39.417h85.216v39.417H264.425z M414.24,215.141h-13.436v-11.448h-22.608v11.448
				h-21.587v-46.375h-99.153v46.375h-21.587v-11.448h-22.605v11.448h-13.438h-63.46v55.077v120.011v55.072h63.46H414.24h63.457
				v-55.072V270.222v-55.081H414.24z"/>
			<path fill="#4F0A0C" d="M263.21,213.926v-39.417h85.216v39.417H263.21z M413.024,213.926h-13.434v-11.448h-22.609v11.448h-21.588
				v-46.375h-99.152v46.375h-21.587v-11.448h-22.606v11.448H198.61h-63.46v55.077v120.011v55.072h63.46h214.414h63.457v-55.072
				V269.007v-55.081H413.024z"/>
			<path fill="#4F0A0C" d="M261.995,212.711v-39.417h85.216v39.417H261.995z M411.81,212.711h-13.435v-11.448h-22.608v11.448
				h-21.588v-46.375h-99.153v46.375h-21.587v-11.448h-22.605v11.448h-13.438h-63.46v55.077v120.011v55.072h63.46H411.81h63.457
				v-55.072V267.792v-55.081H411.81z"/>
			<path fill="#4F0A0C" d="M260.779,211.496v-39.417h85.217v39.417H260.779z M410.595,211.496H397.16v-11.448h-22.608v11.448
				h-21.588v-46.375h-99.153v46.375h-21.587v-11.448h-22.606v11.448h-13.438H132.72v55.076v120.012v55.072h63.461h214.414h63.457
				v-55.072V266.576v-55.08H410.595z"/>
			<path fill="#4F0A0C" d="M259.564,210.281v-39.417h85.217v39.417H259.564z M409.379,210.281h-13.434v-11.448h-22.608v11.448
				h-21.588v-46.375h-99.153v46.375h-21.587v-11.448h-22.605v11.448h-13.438h-63.46v55.077v120.011v55.072h63.46h214.414h63.458
				v-55.072V265.361v-55.081H409.379z"/>
			<path fill="#4F0A0C" d="M258.35,209.066v-39.417h85.216v39.417H258.35z M408.164,209.066H394.73v-11.448h-22.609v11.448h-21.588
				v-46.375h-99.152v46.375h-21.587v-11.448h-22.606v11.448H193.75h-63.46v55.077v120.011v55.072h63.46h214.414h63.457v-55.072
				V264.146v-55.081H408.164z"/>
			<path fill="#4F0A0C" d="M257.135,207.851v-39.418h85.216v39.418H257.135z M406.949,207.851h-13.434v-11.447h-22.609v11.447
				h-21.588v-46.375h-99.153v46.375h-21.587v-11.447h-22.606v11.447h-13.438h-63.46v55.077v120.011v55.072h63.46h214.414h63.457
				v-55.072V262.932v-55.081H406.949z"/>
			<path fill="#4F0A0C" d="M255.92,206.636v-39.418h85.216v39.418H255.92z M405.734,206.636H392.3v-11.448h-22.608v11.448h-21.588
				v-46.375h-99.153v46.375h-21.587v-11.448h-22.606v11.448H191.32h-63.46v55.077v120.011v55.072h63.46h214.414h63.457v-55.072
				V261.716v-55.08H405.734z"/>
			<path fill="#4F0A0C" d="M254.704,205.42v-39.417h85.217v39.417H254.704z M404.52,205.42h-13.435v-11.448h-22.608v11.448h-21.588
				v-46.375h-99.153v46.375h-21.586v-11.448h-22.606v11.448h-13.438h-63.46v55.077v120.011v55.073h63.46H404.52h63.456v-55.073
				V260.501V205.42H404.52z"/>
			<path fill="#4F0A0C" d="M253.489,204.206v-39.418h85.216v39.418H253.489z M403.304,204.206H389.87v-11.448h-22.609v11.448
				h-21.587V157.83h-99.153v46.375h-21.587v-11.448h-22.606v11.448H188.89h-63.46v55.077v120.011v55.072h63.46h214.414h63.457
				v-55.072V259.286v-55.081H403.304z"/>
			<path fill="#4F0A0C" d="M252.274,202.99v-39.417h85.216v39.417H252.274z M402.089,202.99h-13.434v-11.447h-22.609v11.447h-21.587
				v-46.375h-99.153v46.375h-21.587v-11.447h-22.606v11.447h-13.438h-63.46v55.077v120.011v55.072h63.46h214.414h63.457v-55.072
				V258.07v-55.08H402.089z"/>
			<path fill="#4F0A0C" d="M251.059,201.775v-39.418h85.216v39.418H251.059z M400.874,201.775h-13.435v-11.448h-22.608v11.448
				h-21.588V155.4H244.09v46.375h-21.587v-11.448h-22.606v11.448h-13.438H123v55.076v120.012v55.072h63.46h214.415h63.457v-55.072
				V256.856v-55.081H400.874z"/>
			<path fill="#4F0A0C" d="M249.844,200.56v-39.417h85.216v39.417H249.844z M399.658,200.56h-13.434v-11.447h-22.608v11.447h-21.588
				v-46.375h-99.153v46.375h-21.586v-11.447h-22.606v11.447h-13.438h-63.461v55.077v120.011v55.072h63.461h214.413h63.457v-55.072
				V255.641V200.56H399.658z"/>
			<path fill="#4F0A0C" d="M248.629,199.345v-39.417h85.216v39.417H248.629z M398.444,199.345H385.01v-11.448h-22.608v11.448
				h-21.588V152.97H241.66v46.375h-21.587v-11.448h-22.606v11.448h-13.438h-63.46v55.077v120.011v55.072h63.46h214.415H461.9
				v-55.072V254.426v-55.081H398.444z"/>
			<path fill="#4F0A0C" d="M247.414,198.13v-39.418h85.216v39.418H247.414z M397.229,198.13h-13.434v-11.447h-22.609v11.447h-21.588
				v-46.375h-99.152v46.375h-21.587v-11.447h-22.606v11.447h-13.438h-63.46v55.077v120.011v55.072h63.46h214.414h63.457v-55.072
				V253.21V198.13H397.229z"/>
			<path fill="#4F0A0C" d="M246.199,196.915v-39.418h85.216v39.418H246.199z M396.014,196.915H382.58v-11.448h-22.609v11.448
				h-21.588V150.54H239.23v46.375h-21.586v-11.448h-22.606v11.448H181.6h-63.46v55.077v120.011v55.072h63.46h214.414h63.457v-55.072
				V251.996v-55.081H396.014z"/>
			<path fill="#4F0A0C" d="M244.984,195.7v-39.417H330.2V195.7H244.984z M394.799,195.7h-13.434v-11.448h-22.609V195.7h-21.588
				v-46.375h-99.153V195.7h-21.587v-11.448h-22.605V195.7h-13.438h-63.46v55.077v120.01v55.073h63.46h214.414h63.457v-55.073
				V250.781V195.7H394.799z"/>
			<path fill="#4F0A0C" d="M243.769,194.485v-39.418h85.216v39.418H243.769z M393.584,194.485h-13.435v-11.448H357.54v11.448
				h-21.587v-46.376H236.8v46.376h-21.587v-11.448h-22.606v11.448h-13.438h-63.46v55.076v120.011v55.072h63.46h214.415h63.457
				v-55.072V249.565v-55.08H393.584z"/>
			<path fill="#4F0A0C" d="M242.554,193.27v-39.418h85.216v39.418H242.554z M392.368,193.27h-13.434v-11.448h-22.609v11.448h-21.588
				v-46.376h-99.152v46.376h-21.587v-11.448h-22.606v11.448h-13.438h-63.461v55.076v120.011v55.072h63.461h214.414h63.458v-55.072
				V248.35v-55.08H392.368z"/>
			<path fill="#4F0A0C" d="M241.339,192.055v-39.418h85.216v39.418H241.339z M391.153,192.055H377.72v-11.448H355.11v11.448h-21.588
				v-46.375H234.37v46.375h-21.587v-11.448h-22.606v11.448h-13.438h-63.46v55.077v120.011v55.071h63.46h214.414h63.457v-55.071
				V247.135v-55.081H391.153z"/>
			<path fill="#4F0A0C" d="M240.123,190.84v-39.418h85.217v39.418H240.123z M389.938,190.84h-13.434v-11.448h-22.609v11.448h-21.588
				v-46.376h-99.153v46.376h-21.587v-11.448h-22.605v11.448h-13.438h-63.46v55.077v120.01v55.072h63.46h214.414h63.457v-55.072
				V245.92V190.84H389.938z"/>
			<path fill="#4F0A0C" d="M238.908,189.625v-39.418h85.217v39.418H238.908z M388.724,189.625h-13.435v-11.448h-22.608v11.448
				h-21.588v-46.376h-99.153v46.376h-21.587v-11.448h-22.606v11.448h-13.438h-63.46v55.076v120.011v55.072h63.46h214.415h63.457
				v-55.072V244.706v-55.081H388.724z"/>
			<path fill="#4F0A0C" d="M237.693,188.41v-39.419h85.217v39.419H237.693z M387.508,188.41h-13.434v-11.448h-22.608v11.448h-21.589
				v-46.376h-99.152v46.376h-21.587v-11.448h-22.606v11.448h-13.437h-63.46v55.076v120.011v55.072h63.46h214.414h63.458v-55.072
				V243.49v-55.08H387.508z"/>
			<path fill="#4F0A0C" d="M236.478,187.194v-39.418h85.216v39.418H236.478z M386.293,187.194h-13.434v-11.448H350.25v11.448
				h-21.588v-46.375h-99.153v46.375h-21.587v-11.448h-22.606v11.448h-13.438h-63.46v55.077v120.011v55.072h63.46h214.414h63.457
				v-55.072V242.275v-55.081H386.293z"/>
			<path fill="#4F0A0C" d="M235.263,185.979v-39.418h85.216v39.418H235.263z M385.078,185.979h-13.434v-11.448h-22.609v11.448
				h-21.588v-46.376h-99.153v46.376h-21.587v-11.448h-22.606v11.448h-13.438h-63.46v55.076v120.011v55.073h63.46h214.414h63.457
				v-55.073V241.06v-55.081H385.078z"/>
			<path fill="#4F0A0C" d="M234.048,184.765v-39.418h85.216v39.418H234.048z M383.863,184.765h-13.435v-11.448H347.82v11.448
				h-21.588v-46.376H227.08v46.376h-21.587v-11.448h-22.605v11.448h-13.438h-63.461v55.076v120.011v55.072h63.461h214.414h63.457
				v-55.072V239.845v-55.081H383.863z"/>
			<path fill="#4F0A0C" d="M232.833,183.55v-39.419h85.217v39.419H232.833z M382.648,183.55h-13.434v-11.448h-22.61v11.448h-21.587
				v-46.376h-99.153v46.376h-21.587v-11.448h-22.606v11.448h-13.438h-63.46v55.076v120.011v55.072h63.46h214.415h63.456v-55.072
				V238.63v-55.08H382.648z"/>
			<path fill="#4F0A0C" d="M231.618,182.334v-39.418h85.216v39.418H231.618z M381.434,182.334h-13.435v-11.448H345.39v11.448
				h-21.587v-46.376h-99.153v46.376h-21.587v-11.448h-22.606v11.448h-13.437h-63.461v55.077v120.011v55.072h63.461h214.415h63.456
				v-55.072V237.415v-55.08H381.434z"/>
			<path fill="#4F0A0C" d="M230.403,181.12v-39.418h85.216v39.418H230.403z M380.218,181.12h-13.434v-11.448h-22.609v11.448h-21.588
				v-46.376h-99.152v46.376h-21.587v-11.448h-22.606v11.448h-13.438h-63.46v55.076v120.011v55.072h63.46h214.414h63.457v-55.072
				V236.2v-55.08H380.218z"/>
			<path fill="#4F0A0C" d="M229.188,179.904v-39.418h85.217v39.418H229.188z M379.003,179.904h-13.435v-11.448H342.96v11.448
				h-21.588v-46.376h-99.153v46.376h-21.587v-11.448h-22.606v11.448h-13.437h-63.461v55.076v120.011v55.072h63.461h214.414h63.457
				v-55.072V234.984v-55.08H379.003z"/>
			<path fill="#4F0A0C" d="M227.973,178.689v-39.419h85.217v39.419H227.973z M377.788,178.689h-13.434v-11.448h-22.609v11.448
				h-21.588v-46.376h-99.153v46.376h-21.587v-11.448h-22.606v11.448h-13.437h-63.46v55.076v120.011v55.072h63.46h214.415h63.456
				v-55.072V233.77v-55.08H377.788z"/>
			<path fill="#4F0A0C" d="M226.758,177.474v-39.419h85.217v39.419H226.758z M376.572,177.474h-13.434v-11.448h-22.609v11.448
				h-21.587v-46.376h-99.153v46.376h-21.587v-11.448h-22.605v11.448h-13.438h-63.46v55.076v120.011v55.072h63.46h214.414h63.457
				v-55.072V232.554v-55.08H376.572z"/>
			<path fill="#4F0A0C" d="M225.542,176.259V136.84h85.216v39.419H225.542z M375.357,176.259h-13.434v-11.448h-22.609v11.448
				h-21.588v-46.376h-99.153v46.376h-21.587v-11.448h-22.606v11.448h-13.438H97.482v55.076v120.01v55.073h63.461h214.414h63.457
				v-55.073V231.339v-55.08H375.357z"/>
			<path fill="#4F0A0C" d="M224.327,175.044v-39.418h85.217v39.418H224.327z M374.143,175.044h-13.434v-11.448H338.1v11.448h-21.588
				v-46.376h-99.153v46.376h-21.587v-11.448h-22.606v11.448h-13.438H96.268v55.077v120.01v55.072h63.461h214.414H437.6v-55.072
				V230.124v-55.08H374.143z"/>
			<path fill="#4F0A0C" d="M223.112,173.829V134.41h85.217v39.419H223.112z M372.928,173.829h-13.434v-11.448h-22.609v11.448
				h-21.588v-46.376h-99.153v46.376h-21.587v-11.448h-22.606v11.448h-13.438h-63.46v55.076v120.011v55.072h63.46h214.415h63.457
				v-55.072V228.909v-55.08H372.928z"/>
			<path fill="#4F0A0C" d="M221.897,172.614v-39.418h85.216v39.418H221.897z M371.713,172.614h-13.435v-11.448H335.67v11.448
				h-21.589v-46.376h-99.152v46.376h-21.587v-11.448h-22.606v11.448h-13.437H93.837v55.076v120.011v55.072h63.461h214.415h63.457
				v-55.072V227.694v-55.081H371.713z"/>
			<path fill="#4F0A0C" d="M220.682,171.399V131.98h85.216v39.419H220.682z M370.497,171.399h-13.434v-11.448h-22.608v11.448
				h-21.589v-46.376h-99.152v46.376h-21.587v-11.448h-22.606v11.448h-13.438h-63.46v55.076v120.01v55.072h63.46h214.414h63.458
				v-55.072V226.479v-55.08H370.497z"/>
			<path fill="#4F0A0C" d="M219.467,170.184v-39.418h85.216v39.418H219.467z M369.282,170.184h-13.434v-11.448h-22.609v11.448
				h-21.588v-46.376h-99.152v46.376h-21.588v-11.448h-22.606v11.448h-13.437H91.408v55.077v120.01v55.072h63.461h214.414h63.457
				v-55.072V225.264v-55.08H369.282z"/>
			<path fill="#4F0A0C" d="M218.252,168.969V129.55h85.217v39.419H218.252z M368.067,168.969h-13.434v-11.448h-22.609v11.448
				h-21.588v-46.376h-99.153v46.376h-21.587v-11.448H167.09v11.448h-13.437H90.192v55.076v120.011v55.072h63.461h214.414h63.457
				v-55.072V224.049v-55.08H368.067z"/>
			<path fill="#4F0A0C" d="M217.037,167.753v-39.419h85.217v39.419H217.037z M366.853,167.753h-13.434v-11.448H330.81v11.448
				h-21.588v-46.376h-99.153v46.376h-21.587v-11.448h-22.606v11.448h-13.437H88.977v55.077v120.011v55.072h63.461h214.414h63.456
				v-55.072V222.834v-55.081H366.853z"/>
			<path fill="#4F0A0C" d="M215.822,166.539V127.12h85.216v39.419H215.822z M365.638,166.539h-13.434V155.09h-22.61v11.448h-21.588
				v-46.376h-99.152v46.376h-21.587V155.09H164.66v11.448h-13.437H87.762v55.076v120.01v55.072h63.461h214.415h63.456v-55.072
				V221.619v-55.08H365.638z"/>
			<path fill="#4F0A0C" d="M214.606,165.323v-39.419h85.218v39.419H214.606z M364.422,165.323h-13.434v-11.448h-22.609v11.448
				h-21.588v-46.376h-99.153v46.376h-21.587v-11.448h-22.605v11.448h-13.437H86.547v55.076V340.41v55.072h63.461h214.414h63.457
				V340.41V220.403v-55.08H364.422z"/>
			<path fill="#4F0A0C" d="M213.392,164.108v-39.419h85.217v39.419H213.392z M363.207,164.108h-13.434V152.66h-22.609v11.448
				h-21.588v-46.376h-99.153v46.376h-21.587V152.66H162.23v11.448h-13.437H85.332v55.076v120.011v55.072h63.461h214.414h63.457
				v-55.072V219.188v-55.08H363.207z"/>
		</g>
		<g>
			<g>
				<g>
					<rect x="327.164" y="152.66" fill="#ABD41D" width="22.609" height="15.507"/>
					<rect x="162.23" y="152.66" fill="#ABD41D" width="22.606" height="15.507"/>
				</g>
				<rect x="420.961" y="172.229" fill="#FFFFFF" width="0" height="5.794"/>
				<rect x="85.332" y="164.108" fill="#FFC107" width="341.332" height="230.159"/>
				<g>
					<polygon fill="#945D24" points="206.423,164.108 213.392,164.108 213.392,124.689 298.608,124.689 298.608,164.108 
						305.576,164.108 305.576,117.732 206.423,117.732 					"/>
				</g>
				<path fill="#945D24" d="M148.793,164.108c0,30.418-28.407,55.076-63.461,55.076v-55.076H148.793z"/>
				<path fill="#945D24" d="M85.332,339.195c35.054,0,63.461,24.658,63.461,55.072H85.332V339.195z"/>
				<path fill="#945D24" d="M426.664,219.188c-35.051,0-63.457-24.662-63.457-55.08l0,0h63.457V219.188z"/>
				<path fill="#945D24" d="M426.664,339.195v55.072h-63.457C363.207,363.854,391.613,339.195,426.664,339.195z"/>
				<polygon fill="#FFFFFF" points="355.385,221.221 352.505,218.42 350.229,221.729 346.854,219.55 345.253,223.236 
					341.533,221.751 340.687,225.675 336.74,224.944 336.681,228.965 332.659,229.025 333.394,232.976 329.458,233.815 
					330.939,237.553 327.25,239.138 329.433,242.515 326.131,244.787 328.925,247.674 326.131,250.561 329.433,252.833 
					327.25,256.205 330.939,257.791 329.458,261.528 333.394,262.371 332.659,266.318 336.681,266.382 336.74,270.399 
					340.687,269.668 341.533,273.59 345.253,272.108 346.854,275.797 350.229,273.615 352.505,276.92 355.385,274.127 
					358.261,276.92 360.551,273.615 363.912,275.797 365.505,272.108 369.246,273.59 370.086,269.668 374.032,270.399 
					374.085,266.382 378.099,266.318 377.386,262.371 381.307,261.528 379.826,257.791 383.512,256.205 381.325,252.833 
					384.631,250.561 381.84,247.674 384.631,244.787 381.325,242.515 383.512,239.138 379.826,237.553 381.307,233.815 
					377.386,232.976 378.099,229.025 374.085,228.965 374.032,224.944 370.086,225.675 369.246,221.751 365.505,223.236 
					363.912,219.55 360.551,221.729 358.261,218.42 				"/>
				<polygon fill="#FF9800" points="355.385,224.209 352.825,221.729 350.808,224.657 347.815,222.725 346.405,225.996 
					343.089,224.679 342.351,228.164 338.844,227.522 338.788,231.084 335.24,231.129 335.875,234.636 332.397,235.385 
					333.715,238.694 330.425,240.101 332.375,243.089 329.433,245.111 331.913,247.674 329.433,250.233 332.375,252.247 
					330.425,255.247 333.715,256.649 332.397,259.962 335.875,260.711 335.24,264.215 338.788,264.259 338.844,267.825 
					342.351,267.184 343.089,270.664 346.405,269.354 347.815,272.619 350.808,270.687 352.825,273.615 355.385,271.135 
					357.936,273.615 359.962,270.687 362.949,272.619 364.367,269.354 367.68,270.664 368.418,267.184 371.921,267.825 
					371.974,264.259 375.539,264.215 374.898,260.711 378.378,259.962 377.065,256.649 380.333,255.247 378.4,252.247 
					381.325,250.233 378.845,247.674 381.325,245.111 378.4,243.089 380.333,240.101 377.065,238.694 378.378,235.385 
					374.898,234.636 375.539,231.129 371.974,231.084 371.921,227.522 368.418,228.164 367.68,224.679 364.367,225.996 
					362.949,222.725 359.962,224.657 357.936,221.729 				"/>
				<g>
					<polygon fill="#FDD835" points="360.069,349.671 371.619,318.966 327.925,302.514 316.372,333.22 					"/>
				</g>
			</g>
			<g>
				<path fill="#5D0C0E" d="M394.848,187.692c0,2.167,1.75,3.92,3.921,3.92s3.936-1.753,3.936-3.92c0-2.171-1.765-3.932-3.936-3.932
					S394.848,185.521,394.848,187.692z"/>
				<path fill="#5D0C0E" d="M109.3,187.692c0,2.167,1.768,3.92,3.932,3.92c2.167,0,3.921-1.753,3.921-3.92
					c0-2.171-1.753-3.932-3.921-3.932C111.068,183.761,109.3,185.521,109.3,187.692z"/>
				<path fill="#5D0C0E" d="M394.848,374.568c0,2.17,1.75,3.92,3.921,3.92s3.936-1.75,3.936-3.92c0-2.168-1.765-3.936-3.936-3.936
					S394.848,372.4,394.848,374.568z"/>
				<path fill="#5D0C0E" d="M109.3,374.568c0,2.17,1.768,3.92,3.932,3.92c2.167,0,3.921-1.75,3.921-3.92
					c0-2.168-1.753-3.936-3.921-3.936C111.068,370.633,109.3,372.4,109.3,374.568z"/>
			</g>
		</g>
	</g>
</g>
</svg>
